<svg width="32" height="32" viewBox="0 0 32 32" fill="none" xmlns="http://www.w3.org/2000/svg">
<path fill-rule="evenodd" clip-rule="evenodd" d="M22.9061 5.88008C22.9061 4.10675 24.3461 2.66675 26.1195 2.66675C27.8928 2.66675 29.3328 4.10675 29.3328 5.88008C29.3328 7.65341 27.8928 9.09341 26.1195 9.09341C24.3461 9.09341 22.9061 7.65341 22.9061 5.88008ZM17.7727 19.6792L21.626 14.7072L21.5727 14.7338C21.786 14.4405 21.826 14.0672 21.6793 13.7338C21.534 13.4005 21.2127 13.1738 20.8673 13.1472C20.506 13.1072 20.1473 13.2672 19.9327 13.5605L16.7073 17.7338L13.0127 14.8272C12.786 14.6538 12.5193 14.5858 12.2527 14.6138C11.9873 14.6538 11.7473 14.7992 11.586 15.0125L7.64068 20.1472L7.55935 20.2672C7.33268 20.6925 7.43935 21.2392 7.83935 21.5338C8.02602 21.6538 8.22602 21.7338 8.45268 21.7338C8.76068 21.7472 9.05268 21.5858 9.23935 21.3338L12.586 17.0258L16.386 19.8805L16.506 19.9592C16.9327 20.1858 17.466 20.0805 17.7727 19.6792ZM20.5993 5.04048C20.546 5.37382 20.5193 5.70715 20.5193 6.04048C20.5193 9.04048 22.946 11.4658 25.9327 11.4658C26.266 11.4658 26.586 11.4272 26.9193 11.3738V22.1325C26.9193 26.6538 24.2527 29.3338 19.7193 29.3338H9.86735C5.33268 29.3338 2.66602 26.6538 2.66602 22.1325V12.2672C2.66602 7.73382 5.33268 5.04048 9.86735 5.04048H20.5993Z" fill="url(#paint0_linear)"/>
<defs>
<linearGradient id="paint0_linear" x1="15.9994" y1="29.3338" x2="15.9994" y2="2.66675" gradientUnits="userSpaceOnUse">
<stop stop-color="#7A00FF"/>
<stop offset="1" stop-color="#9900FF"/>
</linearGradient>
</defs>
</svg>
