<svg width="98" height="22" viewBox="0 0 98 22" fill="none" xmlns="http://www.w3.org/2000/svg">
<path fill-rule="evenodd" clip-rule="evenodd" d="M0.103516 21.8671H84.7948V19.875H0.103516V21.8671Z" fill="white"/>
<mask id="mask0" mask-type="alpha" maskUnits="userSpaceOnUse" x="0" y="0" width="14" height="17">
<path d="M0 0.95166H13.8781V16.4173H0V0.95166Z" fill="white"/>
</mask>
<g mask="url(#mask0)">
<path fill-rule="evenodd" clip-rule="evenodd" d="M4.5161 7.47671C5.85778 7.47671 7.06323 7.53384 8.26059 7.46085C9.49567 7.3853 10.2914 6.55612 10.3329 5.47079C10.3753 4.36686 9.70458 3.38386 8.59817 3.28204C7.27542 3.16044 5.9327 3.25339 4.5161 3.25339V6.37892V7.47671ZM4.57328 14.132C6.02933 14.132 7.43405 14.2027 8.82792 14.1105C10.0191 14.0317 10.8403 13.0062 10.8461 11.833C10.852 10.6778 10.0391 9.66426 8.81483 9.57285C7.42441 9.46882 6.01985 9.5488 4.57328 9.5488V14.132ZM0.0258348 16.3412V14.4864C1.71664 13.8833 2.32513 13.2032 2.33684 11.9228C2.3489 10.6055 1.74884 9.91751 0.0416801 9.32368V7.66993C1.66032 7.12249 2.37215 6.3542 2.32393 5.21139C2.27639 4.0824 1.49601 3.29432 0 2.95153V1.98472V0.95311C0.698917 0.95311 1.31981 0.949529 1.94054 0.953622C4.348 0.970335 6.75873 0.91525 9.16171 1.02713C11.9088 1.15503 13.6068 3.18892 13.2553 5.7353C13.0946 6.89908 12.3818 7.67113 11.3596 8.31953C11.5268 8.43891 11.6432 8.54158 11.7765 8.61406C13.2589 9.42124 13.9432 10.6923 13.8733 12.3314C13.8025 13.9839 12.9455 15.1973 11.4209 15.8307C10.6474 16.1522 9.77038 16.3593 8.93436 16.379C6.12664 16.4457 3.31633 16.4056 0.506879 16.4029C0.369438 16.4027 0.231997 16.3686 0.0258348 16.3412Z" fill="white"/>
</g>
<path fill-rule="evenodd" clip-rule="evenodd" d="M83.4884 16.4091H81.6021H80.5896C80.5684 16.0261 80.5381 15.7246 80.5374 15.4232C80.5328 13.5476 80.5431 11.672 80.5322 9.79653C80.5228 8.19872 79.7464 7.32059 78.3571 7.30149C76.8877 7.28137 75.7942 8.29081 75.7621 9.79022C75.7227 11.6367 75.7513 13.4843 75.7506 15.3315C75.7504 15.6408 75.7506 15.9502 75.7506 16.3338H72.8352C72.8182 16.0268 72.7877 15.7254 72.787 15.4241C72.7823 13.5486 72.7944 11.673 72.7811 9.79738C72.7699 8.17842 72.0104 7.31821 70.6148 7.30149C69.1012 7.28325 68.026 8.31554 68.006 9.8627C67.9826 11.7095 68.0003 13.5568 68.0002 15.404V16.3626H65.1084V5.2497C67.0603 4.92345 67.1921 4.98314 67.7782 6.42661C71.1728 4.24725 73.1153 4.33406 75.2835 6.96774C75.4445 6.71261 75.5498 6.43616 75.7451 6.25419C77.1613 4.93368 78.8377 4.56668 80.6838 5.09058C82.3212 5.55514 83.4185 6.87787 83.4691 8.59847C83.5439 11.15 83.4884 13.7054 83.4884 16.4091Z" fill="white"/>
<mask id="mask1" mask-type="alpha" maskUnits="userSpaceOnUse" x="86" y="4" width="12" height="18">
<path d="M86.3857 4.88867H97.9817V21.9123H86.3857V4.88867Z" fill="white"/>
</mask>
<g mask="url(#mask1)">
<path fill-rule="evenodd" clip-rule="evenodd" d="M89.225 10.7249C89.2612 11.1749 89.2699 11.6298 89.3392 12.0754C89.5111 13.1821 90.1223 13.9674 91.2267 14.258C92.3059 14.5421 93.2604 14.2592 94.022 13.4167C95.2483 12.0601 95.2373 9.40556 93.9857 8.08369C93.2075 7.26201 92.2406 7.01012 91.1647 7.31608C90.0996 7.61913 89.5102 8.38282 89.3393 9.45417C89.2727 9.87149 89.2618 10.2975 89.225 10.7249ZM89.023 6.20772C90.0067 5.77301 90.9148 5.15104 91.9032 4.97743C94.6102 4.50195 96.8225 5.97049 97.6365 8.57656C98.5901 11.6308 97.5121 14.9137 95.1012 16.1087C93.2557 17.0235 91.4533 16.94 89.7861 15.6351C89.6962 15.5649 89.607 15.4936 89.5133 15.429C89.4987 15.4187 89.4615 15.4404 89.3404 15.4721V21.9123H86.3857V5.28287C88.1575 4.84167 88.6377 5.0349 89.023 6.20772Z" fill="white"/>
</g>
<path fill-rule="evenodd" clip-rule="evenodd" d="M59.0118 11.8062C58.9721 11.739 58.8709 11.3326 58.6802 11.286C57.5242 11.0043 56.3513 10.9231 55.2616 11.5451C54.6724 11.8812 54.3413 12.4082 54.4109 13.0975C54.4846 13.8264 54.9567 14.2633 55.6289 14.4891C57.316 15.0557 58.9189 13.8887 59.0118 11.8062ZM58.8952 9.57461C59.1382 7.9611 58.1017 6.93512 56.4324 7.05057C55.8349 7.09185 55.2364 7.1865 54.6512 7.31372C54.0949 7.43464 53.5551 7.63008 52.917 7.81989C52.6743 7.17575 52.4309 6.52923 52.1607 5.81192C54.3245 5.03612 56.4579 4.53558 58.683 5.10758C60.6483 5.6129 61.7597 7.09133 61.7945 9.09777C61.8183 10.4611 61.7978 11.8253 61.8004 13.1893C61.8026 14.3128 61.9505 14.4578 63.1343 14.4619C63.2087 15.0958 63.2843 15.7362 63.3584 16.3655C61.8596 17.0872 60.5067 16.7352 59.293 15.2898C58.1377 16.2326 56.8196 16.7548 55.2888 16.6832C52.7074 16.5623 51.0906 14.5853 51.6569 12.2064C51.9833 10.8349 52.9674 10.0354 54.2569 9.76238C55.4429 9.51117 56.6902 9.5347 57.9122 9.46393C58.219 9.44619 58.5317 9.53061 58.8952 9.57461Z" fill="white"/>
<path fill-rule="evenodd" clip-rule="evenodd" d="M40.1471 5.6348C39.9174 6.37154 39.7176 7.01176 39.5187 7.64908C38.512 7.45398 37.5674 7.25512 36.6164 7.09601C36.3141 7.04553 35.9893 7.07042 35.6829 7.11459C35.0382 7.20754 34.5136 7.49968 34.449 8.20743C34.3865 8.89438 34.9488 9.12598 35.4638 9.29788C36.1672 9.53255 36.8949 9.69627 37.6131 9.88728C39.5855 10.4114 40.5534 11.5398 40.5061 13.2635C40.4614 14.8891 39.2925 16.1397 37.4217 16.5267C35.3846 16.9479 33.4535 16.5019 31.4336 15.7918C31.647 15.0849 31.8464 14.4249 32.0429 13.7743C32.9532 13.9994 33.773 14.2605 34.6135 14.3908C35.2237 14.4854 35.9049 14.5422 36.4722 14.3621C36.9023 14.2257 37.3663 13.747 37.5225 13.3164C37.7502 12.6888 37.1749 12.341 36.6465 12.161C35.7823 11.8666 34.8858 11.666 34.0174 11.3821C31.9747 10.7141 31.0774 9.13774 31.6826 7.31345C32.0199 6.29753 32.7494 5.63735 33.7344 5.27802C35.9032 4.48653 37.9978 4.95484 40.1471 5.6348Z" fill="white"/>
<path fill-rule="evenodd" clip-rule="evenodd" d="M21.5557 5.13144H23.594V1.89966H26.5404V5.14099H29.6566V7.37049C28.9434 7.37049 28.2112 7.40989 27.4856 7.35924C26.7915 7.31046 26.5158 7.51443 26.5464 8.24981C26.602 9.58329 26.5605 10.9205 26.5624 12.256C26.565 13.9374 27.2426 14.5225 28.9108 14.2848C29.1066 14.2568 29.2999 14.2118 29.6099 14.1526C29.7422 14.8565 29.8701 15.5378 29.996 16.208C26.1138 17.6777 23.2966 15.7233 23.5792 12.5947C23.6836 11.4386 23.5961 10.2658 23.5961 9.10065V7.37902H21.5557V5.13144Z" fill="white"/>
<path fill-rule="evenodd" clip-rule="evenodd" d="M49.7268 14.2005C49.8535 14.8762 49.9817 15.56 50.1222 16.3091C48.697 16.6958 47.3302 16.9065 45.9523 16.4078C44.5756 15.9095 43.7424 14.7334 43.7288 13.2768C43.7109 11.3517 43.7243 9.4263 43.7243 7.42344C43.0045 7.38814 42.3616 7.35659 41.667 7.32248V5.15113H43.6957V1.92651H46.6417V5.12777H49.751V7.35881H46.6872C46.6872 9.34444 46.6269 11.2112 46.716 13.0708C46.753 13.8488 47.3672 14.3197 48.2058 14.3173C48.686 14.3159 49.166 14.2462 49.7268 14.2005Z" fill="white"/>
<mask id="mask2" mask-type="alpha" maskUnits="userSpaceOnUse" x="0" y="0" width="98" height="22">
<path d="M0 21.9121H97.9816V0.170166H0V21.9121Z" fill="white"/>
</mask>
<g mask="url(#mask2)">
<path fill-rule="evenodd" clip-rule="evenodd" d="M16.5342 16.3657H19.3734V5.2207H16.5342V16.3657Z" fill="white"/>
<path fill-rule="evenodd" clip-rule="evenodd" d="M90.8506 21.855H97.8528V19.8875H90.8506V21.855Z" fill="white"/>
<path fill-rule="evenodd" clip-rule="evenodd" d="M16.1905 1.95558C16.1821 0.875707 16.8553 0.183304 17.9263 0.170343C18.9908 0.157382 19.7261 0.857118 19.7393 1.89589C19.7526 2.92529 19.0149 3.68813 17.985 3.71064C16.9595 3.73298 16.1986 2.9889 16.1905 1.95558Z" fill="white"/>
</g>
</svg>
