<svg width="101" height="24" viewBox="0 0 101 24" fill="none" xmlns="http://www.w3.org/2000/svg">
<path d="M4.85675 0V3.72183H7.19332V2.33658H21.2295V16.3894H7.21001V8.84562H4.87344V18.7427H23.5994V0H4.85675ZM0 5.27399V24H18.726V20.128H16.3894V21.6634H2.33658V7.61057H16.3727V15.0042H18.7093V5.2573H0V5.27399Z" fill="white"/>
<path d="M35.6498 12.2502H32.7291V7.66051H35.7666C37.3689 7.66051 38.387 8.59514 38.387 10.0138C38.3703 11.399 37.3689 12.2502 35.6498 12.2502ZM32.7291 2.10279H35.2826C36.8849 2.10279 37.7861 2.88721 37.7861 4.15564C37.7861 5.62435 36.8515 6.54229 35.4328 6.54229H32.7124L32.7291 2.10279C32.7124 2.10279 32.7291 2.10279 32.7291 2.10279ZM37.1853 6.97623C38.5205 6.57567 39.2381 5.52421 39.2381 4.03881C39.2381 2.06941 37.7694 0.901123 35.2826 0.901123H31.3271V13.4018H35.6498C38.2701 13.4018 39.8223 12.1334 39.8223 9.9804C39.8223 8.51169 38.8376 7.37678 37.1853 6.97623Z" fill="#FCFCFC"/>
<path d="M87.4217 7.71058H82.1644V12.2502H88.0226V13.4352H80.7625V0.917814H87.9725V2.10279H82.1644V6.57567H87.4217V7.71058ZM42.96 13.4185H44.3619V0.901123H42.96V13.4185ZM50.9043 2.10279H47.3828V0.917814H55.8111V2.10279H52.3063V13.4185H50.9043V2.10279ZM57.8306 2.10279H61.3689V13.4185H62.7708V2.10279H66.2757V0.917814H57.8473L57.8306 2.10279C57.8473 2.10279 57.8306 2.10279 57.8306 2.10279ZM96.3007 7.04299L100.023 0.934502H98.3202L95.533 5.89139L95.4162 6.37539L95.2993 5.89139L92.5121 0.934502H90.8264L94.5483 7.04299L90.7263 13.4352H92.4454L95.316 8.29472L95.4328 7.81072L95.5497 8.29472L98.437 13.4352H100.156L96.3007 7.04299Z" fill="#FCFCFC"/>
<path fill-rule="evenodd" clip-rule="evenodd" d="M77.1907 4.73994C77.1907 6.75941 76.1393 8.02784 74.4703 8.41171L74.8375 8.77889L77.6914 13.4187H76.0224L73.302 8.57861H70.5982V13.4187H69.1963V0.917969H72.8013C75.5718 0.917969 77.1907 2.3366 77.1907 4.73994ZM72.9846 7.47705H70.598L70.5813 2.1196H73.0681C74.7704 2.1196 75.7718 3.08762 75.7718 4.7566C75.7718 6.5758 74.6536 7.47705 72.9846 7.47705Z" fill="#FCFCFC"/>
<path d="M35.6326 19.2935H37.652V22.064C37.0178 22.2643 36.3669 22.3644 35.716 22.3644C34.8815 22.3644 34.2473 22.1141 33.78 21.63C33.3294 21.1294 33.0957 20.4451 33.0957 19.5438C33.0957 18.6593 33.3461 17.9583 33.8634 17.4576C34.3808 16.9569 35.0818 16.7065 35.9664 16.7065C36.5338 16.7065 37.0846 16.8234 37.602 17.0403L37.2849 17.7914C36.8676 17.5911 36.4003 17.491 35.9497 17.491C35.3655 17.491 34.8982 17.6746 34.5477 18.0417C34.2139 18.4089 34.0303 18.9096 34.0303 19.5605C34.0303 20.2281 34.1805 20.7455 34.4977 21.096C34.7981 21.4465 35.2487 21.6134 35.8328 21.6134C36.1166 21.6134 36.4337 21.58 36.7675 21.4965V20.0779H35.6326V19.2935ZM45.9302 22.281V16.7733H46.8314V21.5132H49.168V22.281H45.9302ZM61.9525 19.5271C61.9525 20.4284 61.7355 21.1127 61.2849 21.6134C60.8342 22.1141 60.2 22.3644 59.3822 22.3644C58.5477 22.3644 57.9135 22.1141 57.4629 21.63C57.0123 21.1294 56.7953 20.4284 56.7953 19.5271C56.7953 18.6259 57.0123 17.9249 57.4629 17.4409C57.9135 16.9569 58.5477 16.7065 59.3822 16.7065C60.2 16.7065 60.8342 16.9569 61.2849 17.4409C61.7355 17.9249 61.9525 18.6259 61.9525 19.5271ZM57.7466 19.5271C57.7466 20.2114 57.8801 20.7121 58.1639 21.0793C58.4309 21.4298 58.8481 21.5967 59.3822 21.5967C59.9163 21.5967 60.3168 21.4298 60.5839 21.0793C60.8509 20.7288 61.0011 20.2114 61.0011 19.5271C61.0011 18.8595 60.8676 18.3421 60.6006 17.9917C60.3335 17.6412 59.933 17.4743 59.3989 17.4743C58.8648 17.4743 58.4476 17.6412 58.1805 17.9917C57.8801 18.3421 57.7466 18.8428 57.7466 19.5271ZM70.0804 16.7733H71.716C72.4671 16.7733 73.0178 16.8901 73.3516 17.1071C73.6854 17.3241 73.8523 17.6746 73.8523 18.1586C73.8523 18.4757 73.7689 18.7427 73.602 18.9597C73.4351 19.1766 73.2014 19.3102 72.8843 19.3602V19.3936C73.2682 19.4604 73.5519 19.6106 73.7355 19.8275C73.9191 20.0445 74.0025 20.3282 74.0025 20.6954C74.0025 21.1961 73.8356 21.58 73.4851 21.8637C73.1347 22.1474 72.6673 22.281 72.0498 22.281H70.0637C70.0804 22.281 70.0804 16.7733 70.0804 16.7733ZM70.9817 19.0598H71.8495C72.2334 19.0598 72.5004 19.0097 72.6673 18.8762C72.8342 18.7594 72.9344 18.5591 72.9344 18.2587C72.9344 17.9917 72.8342 17.8081 72.6506 17.6912C72.4671 17.5744 72.1666 17.5243 71.7661 17.5243H70.9817V19.0598ZM70.9817 19.7775V21.5299H71.933C72.3168 21.5299 72.6006 21.4631 72.7842 21.3129C72.9844 21.1627 73.0679 20.9458 73.0679 20.6287C73.0679 20.3449 72.9678 20.128 72.7675 19.9944C72.5672 19.8609 72.2668 19.7942 71.8829 19.7942C71.8829 19.7775 70.9817 19.7775 70.9817 19.7775ZM85.5352 22.281L84.9844 20.7455H82.8815L82.3474 22.281H81.3794L83.4323 16.7566H84.417L86.4698 22.281C86.4865 22.281 85.5352 22.281 85.5352 22.281ZM84.7508 19.9777L84.2334 18.4757C84.1166 18.1586 84.0164 17.8415 83.933 17.5243C83.8495 17.8748 83.7494 18.2086 83.6326 18.5424L83.1319 19.9777H84.7508ZM94.1639 22.281V16.7733H95.0651V21.5132H97.4017V22.281C97.385 22.281 94.1639 22.281 94.1639 22.281Z" fill="#FCFCFC"/>
</svg>
