<svg width="24" height="24" viewBox="0 0 24 24" fill="none" xmlns="http://www.w3.org/2000/svg">
<g clip-path="url(#clip0)">
<path d="M10.7639 3.65735C10.7916 3.54885 10.8432 3.45304 10.9113 3.37367C8.64848 1.72739 5.45056 2.76587 4.38672 6.117C4.44965 6.13297 4.51118 6.1588 4.56989 6.19402C6.93091 7.61134 10.0601 6.38025 10.7639 3.65735Z" fill="#FCFCFC"/>
<path d="M6.11607 12.6072C9.09047 14.9827 13.1042 12.4057 13.1042 8.05468C13.1042 6.72787 12.6933 5.45225 11.9878 4.46924C10.8451 7.71403 7.08457 9.12463 4.10683 7.54932C3.95292 9.44442 4.65197 11.4376 6.11607 12.6072Z" fill="#FCFCFC"/>
<path d="M7.08887 14.6916L8.59462 16.7995L10.1004 14.6912C9.12304 14.9857 8.06709 14.9855 7.08887 14.6916Z" fill="#FCFCFC"/>
<path d="M12.3053 18.2311C12.3053 18.4816 12.443 18.1396 9.5953 23.598C9.5264 23.7299 9.42167 23.8305 9.29941 23.8949V21.1191L10.8963 18.0582V16.002L9.29941 18.2377C9.14992 18.4472 8.99582 18.7163 8.59491 18.7163C8.19128 18.7163 8.02962 18.4327 7.89041 18.2377L6.29354 16.002V18.0582L7.89041 21.1191V23.8949C7.76816 23.8305 7.66342 23.7299 7.59452 23.598C4.88177 18.3982 4.96063 18.5573 4.93667 18.4964C4.86326 18.3178 4.88454 18.5011 4.88454 14.7504C2.1398 15.1874 0 17.5748 0 20.4878V23.272C0 23.6609 0.315616 23.9765 0.704501 23.9765H13.8303V14.9298C13.3362 14.779 12.8243 14.695 12.3053 14.6799V18.2311Z" fill="#FCFCFC"/>
<path d="M16.5376 13.5498H16.0531C15.6641 13.5498 15.3486 13.8652 15.3486 14.2543V23.9764H17.2421V14.2543C17.2421 13.8652 16.9268 13.5498 16.5376 13.5498Z" fill="#FCFCFC"/>
<path d="M19.9292 11.9919H19.4447C19.0557 11.9919 18.7402 12.3074 18.7402 12.6964V23.9764H20.6338V12.6964C20.6338 12.3073 20.3183 11.9919 19.9292 11.9919Z" fill="#FCFCFC"/>
<path d="M23.2955 10.4971H22.8109C22.4219 10.4971 22.1064 10.8125 22.1064 11.2016V23.9765H24V11.2016C24 10.8125 23.6845 10.4971 23.2955 10.4971Z" fill="#FCFCFC"/>
<path d="M19.4911 8.94712C21.9513 8.94712 23.953 6.94539 23.953 4.48528C23.953 2.02516 21.9513 0.0234375 19.4911 0.0234375C17.031 0.0234375 15.0293 2.02516 15.0293 4.48528C15.0293 6.94539 17.031 8.94712 19.4911 8.94712ZM19.4911 3.07628C20.268 3.07628 20.9001 3.70845 20.9001 4.48528C20.9001 5.26211 20.268 5.89428 19.4911 5.89428C18.7143 5.89428 18.0821 5.26211 18.0821 4.48528C18.0821 3.70845 18.7143 3.07628 19.4911 3.07628Z" fill="#FCFCFC"/>
</g>
<defs>
<clipPath id="clip0">
<rect width="24" height="24" fill="white"/>
</clipPath>
</defs>
</svg>
