<svg width="80" height="24" viewBox="0 0 80 24" fill="none" xmlns="http://www.w3.org/2000/svg">
<g clip-path="url(#clip0)">
<path d="M29.6978 5.98215V12.7541H22.9699V6.8566C22.9699 6.37193 22.5768 5.97876 22.0921 5.97876H19.8145V22.19C19.8145 22.6747 20.2076 23.0679 20.6923 23.0679H22.9699V15.5062H29.7012V22.1867C29.6944 22.6713 30.0808 23.0713 30.5655 23.0781H30.579H32.8567V6.8566C32.8567 6.37193 32.4635 5.97876 31.9788 5.97876H29.6978V5.98215ZM43.0586 10.2188V18.3431C43.0654 19.082 42.679 19.77 42.0418 20.1497C40.259 21.18 38.4118 19.8887 38.4118 18.194V11.0967C38.4118 10.612 38.0187 10.2188 37.534 10.2188H35.2563V18.4855C35.2631 21.1495 37.4188 23.3051 40.0828 23.3187H41.3775C44.0449 23.3119 46.2073 21.1495 46.2141 18.4821V11.0967C46.2141 10.612 45.821 10.2188 45.3363 10.2188H43.0586Z" fill="#FCFCFC"/>
<path d="M77.5175 23.078H79.7951V11.5678C79.7951 11.0831 79.402 10.6899 78.9173 10.6899H76.6397V22.1934C76.6363 22.6781 77.026 23.0746 77.5107 23.078H77.5175Z" fill="#FCFCFC"/>
<path d="M79.8436 8.38769C80.2154 7.49012 79.7892 6.46108 78.8916 6.08929C77.994 5.71749 76.9649 6.14372 76.5931 7.0413C76.2213 7.93888 76.6476 8.9679 77.5452 9.3397C78.4427 9.7115 79.4718 9.28527 79.8436 8.38769Z" fill="#FCFCFC"/>
<path d="M54.355 10.2122C51.0504 10.2122 48.3457 12.5745 48.3457 15.8792V17.6653C48.3457 20.97 51.0504 23.3188 54.355 23.3188C57.6596 23.3188 60.3643 20.97 60.3643 17.6653V15.8792C60.3677 12.5745 57.663 10.2122 54.355 10.2122ZM57.1953 17.8789C57.1953 19.4414 55.9175 20.4819 54.3516 20.4819C52.7857 20.4819 51.5114 19.4414 51.5114 17.8789V15.6487C51.5114 14.0862 52.7891 13.0457 54.3516 13.0457C55.9141 13.0457 57.1953 14.0862 57.1953 15.6487V17.8789Z" fill="#FCFCFC"/>
<path d="M68.5059 10.2122C67.5162 10.2054 66.5401 10.4291 65.6487 10.8596V6.87369C65.6487 6.38902 65.2555 5.99585 64.7708 5.99585H62.4932V17.6654C62.4932 20.97 65.1979 23.3188 68.5025 23.3188C71.8072 23.3188 74.5119 20.97 74.5119 17.6654V15.8792C74.5153 12.5746 71.8174 10.2122 68.5059 10.2122ZM71.3496 17.8789C71.3496 19.4414 70.0718 20.482 68.5059 20.482C66.9434 20.482 65.6656 19.4414 65.6656 17.8789V15.6487C65.6656 14.0862 66.9434 13.0457 68.5059 13.0457C70.0684 13.0457 71.3496 14.0862 71.3496 15.6487V17.8789Z" fill="#FCFCFC"/>
<path d="M10.276 7.38202C10.276 3.93844 8.59824 0.972752 7.32046 0.0101764C7.32046 0.0101764 7.22217 -0.0440532 7.23234 0.0949102C7.12727 6.74821 3.72775 8.55134 1.86021 10.9781C-2.45104 16.5841 1.55517 22.729 5.64273 23.8644C7.92037 24.5016 5.11399 22.7392 4.75133 19.0211C4.30732 14.5335 10.276 11.1035 10.276 7.38202Z" fill="#FCFCFC"/>
<path d="M12.2359 9.6494C12.2088 9.63245 12.1715 9.6189 12.1478 9.66296C12.0766 10.5001 11.2225 12.2897 10.1379 13.9369C6.4605 19.5158 8.55511 22.2069 9.73461 23.6542C10.4193 24.4913 9.73461 23.6542 11.4428 22.7967C13.5544 21.5155 14.9237 19.2989 15.1271 16.8382C15.4626 12.8727 13.0833 10.3747 12.2359 9.6494Z" fill="#FCFCFC"/>
</g>
<defs>
<clipPath id="clip0">
<rect width="79.9752" height="24" fill="white"/>
</clipPath>
</defs>
</svg>
