<svg width="99" height="18" viewBox="0 0 99 18" fill="none" xmlns="http://www.w3.org/2000/svg">
<path fill-rule="evenodd" clip-rule="evenodd" d="M0.0170414 13.5475C0.0170414 13.1057 0.0246064 12.6639 0.0145198 12.2221C-0.00565345 11.3663 0.0548662 10.5206 0.1986 9.67488C0.4432 8.26366 0.887011 6.9307 1.61325 5.69873C2.8312 3.6286 4.54845 2.10882 6.71202 1.08638C7.67277 0.631966 8.67891 0.311349 9.73044 0.152302C10.2776 0.0689924 10.8274 0.000829736 11.3846 0.00587883C13.7525 0.0235506 15.9589 0.609245 17.9485 1.91696C19.9003 3.19943 21.3653 4.89592 22.2454 7.0746C22.6589 8.09957 22.9136 9.16997 23.0473 10.2656C23.1961 11.4749 23.2036 12.6892 23.1809 13.906C23.1683 14.5624 23.1708 15.2188 23.1607 15.8752C23.1557 16.1604 23.1456 16.4457 23.07 16.7259C22.7749 17.8115 21.5343 18.3088 20.624 17.7055C20.218 17.4379 20.0163 17.044 19.9431 16.5745C19.8927 16.2589 19.8675 15.9408 19.8675 15.6202C19.8675 14.2998 19.8675 12.977 19.8675 11.6567C19.8675 11.1391 19.7061 10.6797 19.3531 10.2984C18.7353 9.63449 17.7871 9.60925 17.0937 10.2227C16.7053 10.5686 16.5288 11.0078 16.491 11.5128C16.4759 11.7021 16.4708 11.8914 16.4708 12.0808C16.4683 13.5374 16.4733 14.9916 16.4632 16.4482C16.4557 17.2738 15.8278 17.9049 14.9881 17.963C14.1812 18.0185 13.4726 17.4656 13.3339 16.6679C13.2961 16.4482 13.2834 16.2261 13.2834 16.0014C13.2834 14.5372 13.286 13.0729 13.2834 11.6087C13.2809 11.1139 13.117 10.6797 12.7715 10.3161C12.0781 9.58652 11.0341 9.60925 10.3609 10.359C10.0305 10.7251 9.88678 11.1517 9.88678 11.639C9.88678 13.0855 9.88426 14.5346 9.88678 15.9812C9.88678 16.3548 9.84139 16.7209 9.68757 17.0642C9.42028 17.66 8.86047 18.0084 8.20988 17.9857C7.59208 17.9655 7.0701 17.5767 6.83306 16.9557C6.73976 16.7108 6.69942 16.4533 6.69942 16.1907C6.70194 14.7896 6.70194 13.3885 6.69689 11.9874C6.69689 11.6768 6.68429 11.3638 6.59098 11.0634C6.37917 10.3742 5.92023 9.93491 5.21164 9.81878C4.49045 9.70013 3.95586 10.0409 3.55492 10.6216C3.36327 10.8993 3.30023 11.2123 3.30023 11.543C3.30023 12.8735 3.30275 14.2014 3.30275 15.5318C3.30275 15.9231 3.31032 16.3144 3.22206 16.7007C3.0758 17.3419 2.46052 18.0412 1.53003 17.9731C0.889533 17.9251 0.27425 17.3949 0.0952126 16.7158C0.0321713 16.4735 0.0119981 16.2261 0.0119981 15.9787C0.0195631 15.1632 0.0195631 14.3554 0.0170414 13.5475C0.0195631 13.5475 0.0170414 13.5475 0.0170414 13.5475Z" fill="white"/>
<path fill-rule="evenodd" clip-rule="evenodd" d="M28.4189 0.151611H30.6384V10.1116L35.8869 4.70027H38.6025L34.0069 9.43193L39.0203 17.5097H36.4353L32.4924 11.0004L30.6384 12.9088V17.5097H28.4189V0.151611ZM47.1672 4.64799V7.00074C46.6972 6.94846 46.3055 6.92232 45.9399 6.92232C43.9032 6.92232 42.8849 8.04641 42.8849 10.922V17.5097H40.6654V4.70027H42.8326V6.9746C43.4854 5.51067 44.8171 4.67413 46.5144 4.62185C46.7233 4.62185 46.9322 4.62185 47.1672 4.64799ZM50.7184 8.64767L48.5511 8.56925C48.7078 5.92893 51.0317 4.465 53.904 4.465C57.5336 4.465 59.0219 5.87665 58.9697 9.32736L58.9175 12.5689C58.8914 14.5818 59.0219 15.8105 59.1786 17.5097H57.0374L56.9591 15.7059C56.1758 16.9869 54.9224 17.8234 52.6507 17.8234C49.6739 17.8234 48.1333 15.8628 48.1333 13.6669C48.1333 12.2814 48.8383 11.3403 49.8567 10.7652C51.084 10.0855 52.6246 9.82405 54.2696 9.64106L56.7502 9.37964V8.90909C56.7502 6.81775 55.4968 6.26878 53.7996 6.26878C51.789 6.26878 50.849 7.23602 50.7184 8.64767ZM56.9069 11.9677V11.2096L54.2435 11.471C51.7367 11.7063 50.4834 12.3075 50.4834 13.7453C50.4834 15.1047 51.554 15.8889 53.0684 15.8889C54.8702 15.8889 56.9069 14.9217 56.9069 11.9677ZM62.2859 0.151611H64.5054V10.1116L69.7539 4.70027H72.4695L67.8738 9.43193L72.8873 17.5097H70.3022L66.3593 11.0004L64.5054 12.9088V17.5097H62.2859V0.151611ZM79.7286 17.8234C75.5507 17.8234 73.5401 14.8955 73.5401 11.1573C73.5401 7.1576 76.1251 4.49114 79.7547 4.49114C83.7759 4.49114 86.0737 7.68043 85.7604 11.8108H75.8901C75.8901 14.3204 77.5091 15.8628 79.6763 15.8628C81.7131 15.8628 82.7314 15.0001 83.2798 13.6146L85.5515 13.9022C84.9509 16.0196 82.9403 17.8234 79.7286 17.8234ZM79.7547 6.37334C77.5352 6.37334 76.0207 7.70657 75.9162 9.95476H83.4103C83.3581 8.22941 82.1308 6.37334 79.7547 6.37334ZM90.4866 4.70027V6.47791C91.2177 5.35382 92.4972 4.49114 94.6906 4.49114C96.414 4.49114 97.6151 5.14468 98.294 6.24264C98.7901 7.05303 98.999 8.12484 98.999 9.64106V17.5097H96.7795V10.2423C96.7795 8.88295 96.6229 8.07256 96.3095 7.52358C95.8395 6.73933 95.0562 6.42563 93.9334 6.42563C91.7922 6.42563 90.4866 7.88956 90.4866 10.6867V17.5097H88.2671V4.70027H90.4866Z" fill="white"/>
</svg>
