<svg width="24" height="24" viewBox="0 0 24 24" fill="none" xmlns="http://www.w3.org/2000/svg">
<path d="M15.75 10.875H15.375V9.375C15.375 7.51103 13.864 6 12 6C10.136 6 8.625 7.51103 8.625 9.375V10.875H8.25V17.25H15.75V10.875ZM12.75 14.333V15.75H11.25V14.333C11.0214 14.1271 10.875 13.8319 10.875 13.5C10.875 12.8787 11.3787 12.375 12 12.375C12.6213 12.375 13.125 12.8787 13.125 13.5C13.125 13.8319 12.9786 14.1271 12.75 14.333ZM13.875 10.875H10.125V9.375C10.125 8.33947 10.9645 7.5 12 7.5C13.0355 7.5 13.875 8.33947 13.875 9.375V10.875Z" fill="#FCFCFC"/>
<path d="M12.4635 1.9891L12 1.125L11.5365 1.9891L10.5 2.12766L11.25 2.80026L11.073 3.75L12 3.3016L12.927 3.75L12.75 2.80026L13.5 2.12766L12.4635 1.9891Z" fill="#FCFCFC"/>
<path d="M17.3385 3.1141L16.875 2.25L16.4115 3.1141L15.375 3.25266L16.125 3.92526L15.948 4.875L16.875 4.4266L17.802 4.875L17.625 3.92526L18.375 3.25266L17.3385 3.1141Z" fill="#FCFCFC"/>
<path d="M21.0885 6.4891L20.625 5.625L20.1615 6.4891L19.125 6.62766L19.875 7.30026L19.698 8.25L20.625 7.8016L21.552 8.25L21.375 7.30026L22.125 6.62766L21.0885 6.4891Z" fill="#FCFCFC"/>
<path d="M20.7135 16.2391L20.25 15.375L19.7865 16.2391L18.75 16.3777L19.5 17.0503L19.323 18L20.25 17.5516L21.177 18L21 17.0503L21.75 16.3777L20.7135 16.2391Z" fill="#FCFCFC"/>
<path d="M17.3385 19.9891L16.875 19.125L16.4115 19.9891L15.375 20.1277L16.125 20.8003L15.948 21.75L16.875 21.3016L17.802 21.75L17.625 20.8003L18.375 20.1277L17.3385 19.9891Z" fill="#FCFCFC"/>
<path d="M12.4635 21.1141L12 20.25L11.5365 21.1141L10.5 21.2527L11.25 21.9253L11.073 22.875L12 22.4266L12.927 22.875L12.75 21.9253L13.5 21.2527L12.4635 21.1141Z" fill="#FCFCFC"/>
<path d="M22.2135 11.7391L21.75 10.875L21.2865 11.7391L20.25 11.8777L21 12.5503L20.823 13.5L21.75 13.0516L22.677 13.5L22.5 12.5503L23.25 11.8777L22.2135 11.7391Z" fill="#FCFCFC"/>
<path d="M7.58853 3.1141L7.125 2.25L6.66147 3.1141L5.625 3.25266L6.375 3.92526L6.19796 4.875L7.125 4.4266L8.05204 4.875L7.875 3.92526L8.625 3.25266L7.58853 3.1141Z" fill="#FCFCFC"/>
<path d="M3.375 7.8016L4.30204 8.25L4.125 7.30026L4.875 6.62766L3.83853 6.4891L3.375 5.625L2.91147 6.4891L1.875 6.62766L2.625 7.30026L2.44796 8.25L3.375 7.8016Z" fill="#FCFCFC"/>
<path d="M4.21353 16.2391L3.75 15.375L3.28647 16.2391L2.25 16.3777L3 17.0503L2.82296 18L3.75 17.5516L4.67704 18L4.5 17.0503L5.25 16.3777L4.21353 16.2391Z" fill="#FCFCFC"/>
<path d="M7.58853 19.9891L7.125 19.125L6.66147 19.9891L5.625 20.1277L6.375 20.8003L6.19796 21.75L7.125 21.3016L8.05204 21.75L7.875 20.8003L8.625 20.1277L7.58853 19.9891Z" fill="#FCFCFC"/>
<path d="M1.32296 13.5L2.25 13.0516L3.17704 13.5L3 12.5503L3.75 11.8777L2.71353 11.7391L2.25 10.875L1.78647 11.7391L0.75 11.8777L1.5 12.5503L1.32296 13.5Z" fill="#FCFCFC"/>
</svg>
