<svg width="120" height="33" viewBox="0 0 120 33" fill="none" xmlns="http://www.w3.org/2000/svg">
<path d="M0 33V17C0 14.7969 0.78125 12.9141 2.34375 11.3516C3.90625 9.78385 5.79167 9 8 9C10.2031 9 12.0859 9.78385 13.6484 11.3516C15.2161 12.9141 16 14.7969 16 17C16 19.2083 15.2161 21.0937 13.6484 22.6562C12.0859 24.2187 10.2031 25 8 25V21C9.09896 21 10.0391 20.6094 10.8203 19.8281C11.6068 19.0469 12 18.1042 12 17C12 15.901 11.6068 14.9609 10.8203 14.1797C10.0391 13.3932 9.09896 13 8 13C6.89583 13 5.95312 13.3932 5.17188 14.1797C4.39062 14.9609 4 15.901 4 17V33H0Z" fill="white"/>
<path d="M26.25 25C24.0417 25 22.1562 24.2187 20.5938 22.6562C19.0312 21.0937 18.25 19.2083 18.25 17C18.25 14.7969 19.0312 12.9141 20.5938 11.3516C22.1562 9.78385 24.0417 9 26.25 9C28.4531 9 30.3359 9.78385 31.8984 11.3516C33.4661 12.9141 34.25 14.7969 34.25 17V25H30.25V17C30.25 15.901 29.8568 14.9609 29.0703 14.1797C28.2891 13.3932 27.349 13 26.25 13C25.1458 13 24.2031 13.3932 23.4219 14.1797C22.6406 14.9609 22.25 15.901 22.25 17C22.25 18.1042 22.6406 19.0469 23.4219 19.8281C24.2031 20.6094 25.1458 21 26.25 21V25Z" fill="white"/>
<path d="M36.5 25V17C36.5 14.7969 37.2812 12.9141 38.8438 11.3516C40.4062 9.78385 42.2917 9 44.5 9C46.7031 9 48.5859 9.78385 50.1484 11.3516C51.7161 12.9141 52.5 14.7969 52.5 17V25H48.5V17C48.5 15.901 48.1068 14.9609 47.3203 14.1797C46.5391 13.3932 45.599 13 44.5 13C43.3958 13 42.4531 13.3932 41.6719 14.1797C40.8906 14.9609 40.5 15.901 40.5 17V25H36.5Z" fill="white"/>
<path d="M62.75 25C60.5417 25 58.6562 24.2187 57.0938 22.6562C55.5312 21.0937 54.75 19.2083 54.75 17V1H58.75V9H62.75V13H58.75V17C58.75 18.1042 59.1406 19.0469 59.9219 19.8281C60.7031 20.6094 61.6458 21 62.75 21V25Z" fill="white"/>
<path d="M73 25C70.7917 25 68.9062 24.2187 67.3438 22.6562C65.7812 21.0937 65 19.2083 65 17C65 14.7969 65.7812 12.9141 67.3438 11.3516C68.9062 9.78385 70.7917 9 73 9C75.2031 9 77.0859 9.78385 78.6484 11.3516C80.2161 12.9141 81 14.7969 81 17H77C77 15.901 76.6068 14.9609 75.8203 14.1797C75.0391 13.3932 74.099 13 73 13C71.8958 13 70.9531 13.3932 70.1719 14.1797C69.3906 14.9609 69 15.901 69 17C69 18.1042 69.3906 19.0469 70.1719 19.8281C70.9531 20.6094 71.8958 21 73 21V25Z" fill="white"/>
<path d="M83.25 25V17C83.25 14.7969 84.0312 12.9141 85.5938 11.3516C87.1562 9.78385 89.0417 9 91.25 9C93.4531 9 95.3359 9.78385 96.8984 11.3516C98.4661 12.9141 99.25 14.7969 99.25 17H95.25C95.25 15.901 94.8568 14.9609 94.0703 14.1797C93.2891 13.3932 92.349 13 91.25 13C90.1458 13 89.2031 13.3932 88.4219 14.1797C87.6406 14.9609 87.25 15.901 87.25 17V25H83.25Z" fill="white"/>
<path d="M109.5 25C107.292 25 105.406 24.2187 103.844 22.6562C102.281 21.0937 101.5 19.2083 101.5 17C101.5 14.7969 102.281 12.9141 103.844 11.3516C105.406 9.78385 107.292 9 109.5 9C111.703 9 113.586 9.78385 115.148 11.3516C116.716 12.9141 117.5 14.7969 117.5 17V25H113.5V17C113.5 15.901 113.107 14.9609 112.32 14.1797C111.539 13.3932 110.599 13 109.5 13C108.396 13 107.453 13.3932 106.672 14.1797C105.891 14.9609 105.5 15.901 105.5 17C105.5 18.1042 105.891 19.0469 106.672 19.8281C107.453 20.6094 108.396 21 109.5 21V25Z" fill="white"/>
<rect x="70.3999" y="14.0801" width="5.12" height="5.12" rx="2.56" fill="url(#paint0_linear)"/>
<defs>
<linearGradient id="paint0_linear" x1="73.1999" y1="13.4983" x2="73.1999" y2="19.6073" gradientUnits="userSpaceOnUse">
<stop stop-color="#8900E9"/>
<stop offset="1" stop-color="#450097"/>
</linearGradient>
</defs>
</svg>
