<svg width="24" height="24" viewBox="0 0 24 24" fill="none" xmlns="http://www.w3.org/2000/svg">
<path d="M20.5778 11.3928V11.7635H22.1713V6.89358C22.1713 6.01249 21.4547 5.2959 20.5736 5.2959H18.7031V8.60937C19.8017 9.05648 20.5778 10.1358 20.5778 11.3928Z" fill="#FCFCFC"/>
<path d="M23.2961 13.1694C21.8224 13.1694 17.5482 13.1694 16.0716 13.1694C15.3124 13.1694 14.6257 13.5663 14.2393 14.1932C13.8421 14.8396 13.9227 15.202 13.9227 16.9338C13.9227 18.114 14.887 19.0746 16.0715 19.0746H23.2961C23.6843 19.0746 23.9991 18.7599 23.9991 18.3716V13.8724C23.9991 13.4842 23.6843 13.1694 23.2961 13.1694Z" fill="#FCFCFC"/>
<path d="M12.8918 8.38914V4.12427H8.29883V8.38914H9.8923V7.17061C9.8923 6.78255 10.2072 6.46761 10.5953 6.46761C10.9834 6.46761 11.2983 6.78255 11.2983 7.17061V8.38914H12.8918Z" fill="#FCFCFC"/>
<path d="M12.5169 16.9339V15.3104C12.5169 13.3547 14.1118 11.7635 16.0718 11.7635H19.172C19.172 11.275 19.2085 10.7681 18.7033 10.2638C18.412 9.97196 18.0127 9.79513 17.5719 9.79513C16.8385 9.79513 4.63988 9.79513 3.89348 9.79513C3.11474 9.79513 2.44858 9.89866 1.86092 9.31475C1.25446 8.71181 1.25765 7.76154 1.87821 7.16399C2.45533 6.60759 3.08133 6.70193 3.89348 6.70193V8.38913H6.89294V3.42127C6.89294 3.03321 7.20789 2.71827 7.59594 2.71827H13.5949C13.9829 2.71827 14.2979 3.03321 14.2979 3.42127V8.38913H17.2973V0.703C17.2973 0.314944 16.9824 0 16.5943 0H4.59648C4.20842 0 3.89348 0.314944 3.89348 0.703V5.29593H3.04102C1.37243 5.29593 0.00349747 6.60679 0.00349747 8.24853C0.00349747 22.6731 -0.0196547 21.7814 0.0531761 22.1243C0.309162 23.2879 1.30217 23.9957 2.31407 23.9957C18.4626 23.9957 17.6851 24.021 17.9577 23.9484C18.6626 23.7768 19.172 23.1382 19.172 22.3981V20.4807H16.0718C14.1118 20.4807 12.5169 18.8896 12.5169 16.9339Z" fill="#FCFCFC"/>
<path d="M20.5781 22.0742C21.4559 22.0718 22.1692 21.3585 22.1716 20.4807H20.5781V22.0742Z" fill="#FCFCFC"/>
</svg>
