<svg width="16" height="21" viewBox="0 0 16 21" fill="none" xmlns="http://www.w3.org/2000/svg">
<path d="M2.34315 14.5707C0.781619 13.0091 0.000854675 11.1235 0.000854675 8.91381C0.000854675 6.7041 0.781619 4.81848 2.34315 3.25695C3.90099 1.69911 5.78477 0.920186 7.99448 0.920186C10.2079 0.916503 12.0953 1.69543 13.6569 3.25695C15.2147 4.8148 15.9918 6.70042 15.9881 8.91381C15.9918 11.1272 15.2147 13.0128 13.6569 14.5707L8 20.2275L5.17157 17.3991L10.8284 11.7422C11.6055 10.9652 11.9922 10.0223 11.9885 8.91381C11.9922 7.80527 11.6055 6.86246 10.8284 6.08538C10.0477 5.30462 9.10301 4.91608 7.99448 4.91976C6.88962 4.91976 5.94865 5.3083 5.17157 6.08538C4.39081 6.86614 4.00043 7.80895 4.00043 8.91381C4.00043 10.0187 4.39081 10.9615 5.17157 11.7422L2.34315 14.5707Z" fill="white"/>
</svg>
