<svg width="24" height="24" viewBox="0 0 24 24" fill="none" xmlns="http://www.w3.org/2000/svg">
<path d="M12.001 0C5.38391 0 0.000976562 5.38294 0.000976562 12C0.000976562 18.6167 5.38391 24 12.001 24C18.6173 24 23.9999 18.6167 23.9999 12C23.9999 5.38294 18.6173 0 12.001 0ZM8.52079 5.62931C10.1164 5.62931 11.415 6.92756 11.415 8.52394C11.415 10.1196 10.1164 11.4182 8.52079 11.4182C6.9246 11.4182 5.62616 10.1196 5.62616 8.52394C5.62616 6.92756 6.92479 5.62931 8.52079 5.62931ZM7.64085 17.421C7.4946 17.5676 7.30204 17.6411 7.11023 17.6411C6.91823 17.6411 6.72604 17.5676 6.57941 17.421C6.28635 17.1279 6.28635 16.6524 6.57941 16.3597L16.36 6.57881C16.6529 6.28575 17.1282 6.28575 17.4214 6.57881C17.7145 6.87188 17.7145 7.34738 17.4214 7.64025L7.64085 17.421ZM15.4647 18.3615C13.8687 18.3615 12.57 17.0631 12.57 15.4669C12.57 13.8712 13.8687 12.5726 15.4647 12.5726C17.0605 12.5726 18.3589 13.8712 18.3589 15.4669C18.3587 17.0631 17.0603 18.3615 15.4647 18.3615Z" fill="#FCFCFC"/>
</svg>
