<svg width="24" height="24" viewBox="0 0 24 24" fill="none" xmlns="http://www.w3.org/2000/svg">
<g clip-path="url(#clip0)">
<path d="M0.046875 19.0547V20.4375H9.91406V18.3516H0.75C0.361875 18.3516 0.046875 18.6666 0.046875 19.0547Z" fill="#FCFCFC"/>
<path d="M0.046875 23.2734C0.046875 23.6616 0.361875 23.9766 0.75 23.9766H9.91406V21.8438H0.046875V23.2734Z" fill="#FCFCFC"/>
<path d="M1.20035 13.9269L3.53909 11.5882L5.17474 13.2238C5.44929 13.4984 5.89451 13.4984 6.1691 13.2238L8.4844 10.9084V11.3203C8.4844 11.7086 8.79921 12.0234 9.18752 12.0234C9.57584 12.0234 9.89065 11.7086 9.89065 11.3203V9.21117C9.89084 8.85506 9.61981 8.54676 9.25704 8.51132C9.19076 8.50476 9.0431 8.50907 7.12502 8.50781C6.73671 8.50781 6.4219 8.82262 6.4219 9.21093C6.4219 9.59924 6.73671 9.91406 7.12502 9.91406H7.49004L5.6719 11.7322L4.03624 10.0966C3.7617 9.82199 3.31648 9.82199 3.04188 10.0966L0.205945 12.9325C-0.0686484 13.2071 -0.0686484 13.6523 0.205945 13.9269C0.480492 14.2014 0.925758 14.2015 1.20035 13.9269Z" fill="#FCFCFC"/>
<path d="M17.6602 11.2969C20.7682 11.2969 23.2969 8.76825 23.2969 5.66016C23.2969 2.55206 20.7682 0.0234375 17.6602 0.0234375C14.5521 0.0234375 12.0234 2.55206 12.0234 5.66016C12.0234 8.76825 14.5521 11.2969 17.6602 11.2969ZM15.7283 7.38788C15.9408 7.06289 16.3766 6.97181 16.7017 7.18439C17.0444 7.40859 17.1546 7.42594 17.6241 7.42284C18.0763 7.41984 18.2566 7.06477 18.2917 6.85547C18.3233 6.66755 18.2879 6.4177 17.9394 6.29452C17.3556 6.08813 16.7569 5.85131 16.3329 5.51869C15.3673 4.76128 15.6587 3.03145 16.9256 2.57109V2.46923C16.9256 2.08092 17.2404 1.76611 17.6287 1.76611C18.0171 1.76611 18.3319 2.08092 18.3319 2.46923V2.52858C18.9126 2.69756 19.176 3.009 19.2265 3.04809C19.512 3.31134 19.53 3.75619 19.2667 4.04166C19.0035 4.32713 18.5587 4.34513 18.2732 4.08187C18.2415 4.05694 18.0188 3.78347 17.5613 3.85481C17.1191 3.92372 17.0337 4.34348 17.417 4.55325C17.7171 4.71755 18.0771 4.85175 18.408 4.96875C20.2612 5.62383 20.0355 8.08861 18.3318 8.70445V8.85126C18.3318 9.23958 18.017 9.55439 17.6287 9.55439C17.2404 9.55439 16.9256 9.23958 16.9256 8.85126V8.78391C16.6017 8.72709 16.3057 8.60588 15.9318 8.36128C15.6068 8.14861 15.5157 7.71281 15.7283 7.38788Z" fill="#FCFCFC"/>
<path d="M11.3203 16.8984H24C24 16.1691 24 15.45 24 14.7773H11.3203V16.8984Z" fill="#FCFCFC"/>
<path d="M11.3203 20.4258H24C24 19.7572 24 19.0378 24 18.3047H11.3203V20.4258Z" fill="#FCFCFC"/>
<path d="M23.2969 11.3203H12.0234C11.6351 11.3203 11.3203 11.6351 11.3203 12.0234V13.3711H24C24 12.8563 24 12.3984 24 12.0234C24 11.6351 23.6852 11.3203 23.2969 11.3203Z" fill="#FCFCFC"/>
<path d="M11.3203 23.2734C11.3203 23.6618 11.6351 23.9766 12.0234 23.9766H23.2969C23.6852 23.9766 24 23.6618 24 23.2734C24 22.898 24 22.4046 24 21.832H11.3203V23.2734Z" fill="#FCFCFC"/>
</g>
<defs>
<clipPath id="clip0">
<rect width="24" height="24" fill="white"/>
</clipPath>
</defs>
</svg>
