<svg width="16" height="16" viewBox="0 0 16 16" fill="none" xmlns="http://www.w3.org/2000/svg">
<path fill-rule="evenodd" clip-rule="evenodd" d="M7.81889 14.609C7.89272 14.6476 7.97527 14.6672 8.05783 14.6666C8.14038 14.6659 8.22226 14.6456 8.29676 14.6064L10.6753 13.3349C11.3499 12.9753 11.8781 12.5733 12.2902 12.1052C13.1861 11.0854 13.6754 9.7838 13.6667 8.44168L13.6385 4.01457C13.6358 3.50466 13.3009 3.04966 12.8056 2.88426L8.38065 1.39963C8.1142 1.30941 7.82225 1.31137 7.5605 1.4042L3.15233 2.94179C2.6597 3.11372 2.33083 3.57199 2.33351 4.08256L2.3617 8.5064C2.37043 9.85048 2.87648 11.1462 3.78724 12.1556C4.20336 12.6171 4.73626 13.0133 5.41816 13.3669L7.81889 14.609ZM7.18922 9.40587C7.28855 9.50132 7.41742 9.54839 7.54628 9.54708C7.67514 9.54642 7.80333 9.49805 7.90132 9.40129L10.5007 6.83865C10.696 6.6458 10.694 6.33592 10.4967 6.14569C10.2987 5.95545 9.9799 5.95676 9.78459 6.14961L7.5389 8.36316L6.61941 7.47931C6.42142 7.28907 6.10329 7.29103 5.90731 7.48389C5.712 7.67674 5.71402 7.98661 5.91201 8.17685L7.18922 9.40587Z" fill="#D6FFF6"/>
</svg>
