<svg width="24" height="24" viewBox="0 0 24 24" fill="none" xmlns="http://www.w3.org/2000/svg">
<path d="M7.76871 3.60622L6.72525 1.79893C6.58125 1.54747 6.26092 1.46397 6.01254 1.60797C5.76211 1.75197 5.67656 2.07025 5.82158 2.32069L6.86504 4.12797C6.96106 4.29599 7.13739 4.38882 7.31685 4.38882C7.40553 4.38882 7.49529 4.36588 7.57771 4.31893C7.82716 4.17385 7.91271 3.85562 7.76871 3.60622Z" fill="#FCFCFC"/>
<path d="M4.14139 6.85244L2.3341 5.80898C2.08469 5.66709 1.76539 5.75053 1.62139 5.99994C1.47636 6.24935 1.56191 6.56865 1.81235 6.71265L3.61963 7.75611C3.70205 7.8041 3.79181 7.82601 3.88049 7.82601C4.05995 7.82601 4.23633 7.7321 4.33127 7.56516C4.47635 7.31575 4.3908 6.99644 4.14139 6.85244Z" fill="#FCFCFC"/>
<path d="M4.33137 16.4347C4.18737 16.1843 3.86704 16.1008 3.61866 16.2438L1.81137 17.2872C1.56093 17.4312 1.47539 17.7505 1.62041 17.9999C1.71643 18.1669 1.89276 18.2608 2.07222 18.2608C2.1609 18.2608 2.25066 18.2389 2.33308 18.1909L4.14037 17.1474C4.39085 17.0034 4.4764 16.6841 4.33137 16.4347Z" fill="#FCFCFC"/>
<path d="M7.57805 19.681C7.32864 19.5381 7.00934 19.6215 6.86534 19.872L5.82188 21.6793C5.67788 21.9287 5.76343 22.248 6.01284 22.392C6.09525 22.44 6.18501 22.4619 6.27369 22.4619C6.45315 22.4619 6.62845 22.369 6.7255 22.201L7.76896 20.3937C7.91301 20.1443 7.82746 19.825 7.57805 19.681Z" fill="#FCFCFC"/>
<path d="M2.62142 11.4783H0.53445C0.246451 11.4783 0.0126953 11.712 0.0126953 12C0.0126953 12.288 0.246451 12.5217 0.53445 12.5217H2.62142C2.90942 12.5217 3.14318 12.288 3.14318 12C3.14318 11.712 2.90942 11.4783 2.62142 11.4783Z" fill="#FCFCFC"/>
<path d="M20.8825 12C20.8825 11.712 21.1163 11.4782 21.4043 11.4782H23.9869C23.9086 9.67509 23.4391 7.97424 22.6481 6.46224L20.4067 7.75614C20.1573 7.90014 19.838 7.81459 19.694 7.56518C19.55 7.31577 19.6355 6.99647 19.8849 6.85247L22.1222 5.56063C21.1799 4.08619 19.9267 2.83299 18.4523 1.89073L17.1604 4.12796C17.0164 4.37737 16.6971 4.46292 16.4477 4.31892C16.1983 4.17492 16.1128 3.85562 16.2568 3.60621L17.5507 1.36482C15.8916 0.497739 14.0102 0 12.013 0C11.725 0 11.4912 0.233755 11.4912 0.521755V23.4782C11.4912 23.7662 11.725 24 12.013 24C14.0102 24 15.8916 23.5023 17.5507 22.6351L16.2568 20.3937C16.1128 20.1443 16.1984 19.825 16.4478 19.681C16.6972 19.537 17.0165 19.6226 17.1605 19.872L18.4523 22.1092C19.9268 21.167 21.18 19.9138 22.1222 18.4393L19.885 17.1475C19.6356 17.0035 19.55 16.6842 19.694 16.4348C19.838 16.1854 20.1573 16.0998 20.4067 16.2438L22.6481 17.5377C23.4391 16.0257 23.9086 14.3249 23.9869 12.5217H21.4043C21.1163 12.5217 20.8825 12.288 20.8825 12Z" fill="#FCFCFC"/>
</svg>
